Coordinates
version=1
nRows=32
nColumns=12
inDegrees=yes

Units are S.I. units (second, meters, Newtons, ...)
Angles are in degrees

endheader
time	SC_y	SC_z	SC_x	AC_y	AC_z	AC_x	GH_y	GH_z	GH_yy	EL_x	PS_y
       0.0              -37.46          21.48          65.79          63.39          9.328          17.58          55.65          29.66         -92.46          20.42          106.5
   0.02944              -37.46          21.48          65.78          63.38          9.328          17.58          55.62          29.66         -92.42          20.44          106.5
   0.05888              -37.46          21.48          65.77          63.38          9.328          17.58          55.59          29.65         -92.38          20.45          106.5
   0.08832              -37.45          21.48          65.76          63.38          9.328          17.58          55.56          29.65         -92.34          20.47          106.5
    0.1178              -37.45          21.48          65.75          63.37          9.328          17.58          55.52          29.65         -92.29          20.49          106.5
    0.1472              -37.44          21.48          65.73          63.37          9.328          17.58          55.49          29.65         -92.24          20.51          106.5
    0.1766              -37.44          21.48          65.72          63.36          9.328          17.58          55.45          29.65         -92.19          20.53          106.5
    0.2061              -37.44          21.48          65.71          63.36          9.328          17.58           55.4          29.64         -92.13          20.56          106.5
    0.2355              -37.43          21.48          65.69          63.35          9.328          17.58          55.36          29.64         -92.07          20.58          106.5
     0.265              -37.42          21.48          65.68          63.35          9.328          17.58          55.31          29.64         -92.01          20.61          106.4
    0.2944              -37.42          21.48          65.66          63.34          9.328          17.58          55.26          29.64         -91.94          20.64          106.4
    0.3238              -37.41          21.48          65.64          63.33          9.328          17.58           55.2          29.63         -91.87          20.67          106.4
    0.3533              -37.41          21.48          65.62          63.33          9.328          17.58          55.14          29.63         -91.79           20.7          106.4
    0.3827               -37.4          21.48           65.6          63.32          9.328          17.58          55.07          29.62          -91.7          20.74          106.4
    0.4122              -37.39          21.48          65.57          63.31          9.328          17.58           55.0          29.62         -91.61          20.77          106.4
    0.4416              -37.38          21.48          65.55           63.3          9.328          17.58          54.92          29.62         -91.51          20.82          106.4
     0.471              -37.37          21.48          65.52          63.29          9.329          17.58          54.84          29.61          -91.4          20.86          106.3
    0.5005              -37.36          21.49          65.49          63.28          9.329          17.59          54.75          29.61         -91.28          20.91          106.3
    0.5299              -37.35          21.49          65.46          63.27          9.329          17.59          54.65           29.6         -91.15          20.97          106.3
    0.5594              -37.34          21.49          65.42          63.25          9.329          17.59          54.54          29.59         -91.01          21.03          106.3
    0.5888              -37.33          21.49          65.38          63.24          9.329          17.59          54.42          29.59         -90.85          21.09          106.2
    0.6182              -37.31          21.49          65.34          63.22          9.329          17.59          54.29          29.58         -90.68          21.16          106.2
    0.6477               -37.3          21.49          65.29           63.2          9.329          17.59          54.14          29.57         -90.49          21.24          106.2
    0.6771              -37.28          21.49          65.24          63.19          9.329          17.59          53.98          29.56         -90.28          21.33          106.2
    0.7066              -37.26          21.49          65.18          63.16          9.329          17.59           53.8          29.55         -90.05          21.43          106.1
     0.736              -37.24          21.49          65.11          63.14           9.33          17.59           53.6          29.54         -89.78          21.54          106.1
    0.7655              -37.21          21.49          65.04          63.11           9.33           17.6          53.37          29.53         -89.49          21.66          106.0
    0.7949              -37.18          21.49          64.96          63.08           9.33           17.6          53.12          29.51         -89.16           21.8          106.0
    0.8243              -37.15          21.49          64.86          63.05           9.33           17.6          52.84           29.5         -88.79          21.95          105.9
    0.8538              -37.11          21.49          64.75          63.01          9.331           17.6          52.51          29.48         -88.37          22.13          105.8
    0.8832              -37.07          21.49          64.63          62.96          9.331          17.61          52.14          29.46         -87.89          22.33          105.8
    0.9127              -37.03          21.49          64.49          62.91          9.331          17.61          51.72          29.43         -87.33          22.56          105.7
